<svg width="135.996" height="35" xmlns="http://www.w3.org/2000/svg">
  <g fill="#000" fill-rule="nonzero">
    <path d="M32.202 3.492c1.527-1.76 3.572-3.25 5.955-3.465 2.17-.174 4.488.503 6.06 2.046 1.193 1.195 1.065 3.587-.587 4.301-1.131.646-2.724-.027-3.047-1.283-.312-1.138.404-2.196.958-3.126-1.421-.199-2.738.555-3.73 1.504-1.676 1.602-2.796 3.694-3.62 5.837-1.801 4.412-3.333 8.928-4.876 13.434-.948 2.356-2.06 4.701-3.763 6.617-2.379 3.013-5.952 5.046-9.772 5.491-3.89.443-8.04-.032-11.435-2.096C2.295 31.53.67 29.51.202 27.138c-.467-2.44-.158-5.127 1.279-7.206 2.04-2.975 6.128-4.185 9.533-3.205 1.854.504 3.051 2.774 2.103 4.525-.71 1.466-3.01 1.597-3.906.253-.802-1.062-.646-2.46-.44-3.687-1.772.51-3.01 2.056-3.789 3.653-1.791 3.616-.291 8.477 3.188 10.501 2.417 1.331 5.34.854 7.831.003 2.76-.983 4.67-3.43 5.883-5.998 1.94-3.908 3.097-8.139 4.868-12.117 1.533-3.585 2.844-7.389 5.45-10.368ZM82.531 5.889c2.318-.452 4.624-.956 6.938-1.43l.65.361c-1.202 6.307-2.631 12.576-3.94 18.864-.103.707-.474 1.469-.205 2.174.698.553 1.645.48 2.483.578.058.27.122.544.185.818-1.882 1.08-4.157 1.94-6.325 1.285-1.258-.409-1.475-1.936-1.218-3.059 1.175-5.697 2.408-11.38 3.587-17.075.089-.325.066-.705-.205-.94-.572-.474-1.35-.52-2.053-.61.036-.323.07-.643.103-.966ZM92.663 5.936c2.308-.583 4.671-.946 6.993-1.489.233.15.466.3.698.452-1.481 6.725-2.796 13.49-4.341 20.2a.953.953 0 0 0 .129.795c.745.479 1.66.46 2.511.546.046.28.09.565.138.85-1.547.845-3.253 1.543-5.046 1.47-.834-.009-1.785-.221-2.261-.971-.466-.761-.362-1.706-.22-2.544 1.157-5.475 2.31-10.95 3.468-16.427.045-.424.28-.978-.088-1.321-.583-.513-1.396-.547-2.128-.653.04-.305.065-.612.147-.908ZM114.836 4.605c1.035-.39 2.406-.042 2.874 1.026.727 1.62-.03 3.68-1.473 4.644-1.068.726-2.83.662-3.522-.553-.982-1.87.12-4.468 2.121-5.117Z"/>
    <path d="M41.414 13.361c1.602-.248 3.393-.187 4.764.773 1.376.946 1.835 3.135.678 4.425-1.025 1.19-3.226.854-3.851-.583-.502-1.041-.335-2.232-.17-3.33-1.608.443-2.742 1.817-3.415 3.28-.714 1.586-1.024 3.375-.802 5.106.16 1.17.996 2.25 2.168 2.534 1.643.443 3.29-.264 4.642-1.154.197.208.394.415.59.626-.707 1.143-1.547 2.258-2.78 2.87-2.122 1.207-4.891 1.202-7.03.044-1.83-.992-2.67-3.147-2.707-5.142-.11-4.513 3.472-8.737 7.913-9.449ZM128.869 14.1c1.434-.854 3.386-1.277 4.877-.328 1.405 1.017 1.484 2.978 1.233 4.54-.37 1.858-.863 3.69-1.292 5.535-.124.619-.38 1.254-.24 1.89.545.717 1.564.604 2.364.676.063.285.122.572.185.859-1.557.928-3.339 1.626-5.182 1.477-.818-.023-1.733-.355-2.094-1.145-.445-1.003-.165-2.128.068-3.147.429-1.902.933-3.788 1.314-5.7.154-.747.097-1.822-.768-2.093-1.294-.31-2.532.424-3.605 1.06-.732 3.548-1.482 7.094-2.243 10.636-1.58-.024-3.158.032-4.735-.033.872-3.773 1.615-7.58 2.435-11.367-.714-.452-1.412-.924-2.12-1.378.029-.332.065-.66.1-.988 2.228-.485 4.455-.978 6.685-1.443.217.138.434.276.653.413-.26.976-.743 1.893-.863 2.903 1.138-.696 2.035-1.74 3.228-2.367ZM49.626 14.597c2.064-.468 4.129-.929 6.194-1.383.365-.133.664.19.973.323-.298 1.213-.777 2.383-.95 3.624.487-.154.67-.667.96-1.04.704-.984 1.43-2.053 2.55-2.602 1.09-.476 2.568-.406 3.386.547 1.391 1.552.436 4.6-1.751 4.753-1.297.219-2.514-.64-2.948-1.84-.899.66-2.087 1.352-2.225 2.572-.637 2.934-1.274 5.87-1.918 8.805-1.545-.002-3.09.002-4.635-.002.766-3.795 1.583-7.58 2.394-11.365-.7-.49-1.42-.951-2.137-1.416.037-.328.073-.651.107-.976ZM108.742 14.585c2.308-.458 4.613-.94 6.923-1.38.353-.126.633.208.938.33-.913 3.93-1.886 7.848-2.842 11.77-.124.473.366.75.739.882.653.213 1.353.177 2.028.267.055.266.107.533.163.802-1.8 1.05-3.906 1.76-6.011 1.432-.71-.106-1.437-.52-1.665-1.236-.354-1.073-.011-2.2.24-3.253.571-2.419 1.201-4.825 1.734-7.253-.804-.447-1.59-.924-2.383-1.382.041-.328.088-.653.136-.979ZM102.602 23.065c1.701-.524 3.635.89 3.646 2.67.167 1.582-1.18 3.098-2.763 3.131-1.518.111-2.981-1.165-3.04-2.692-.17-1.387.802-2.781 2.157-3.109ZM76.954 14.276c1.53 1.026 2.453 2.85 2.453 4.685.156 2.722-1.136 5.36-3.033 7.251-2.083 2.09-5.255 2.973-8.128 2.372-1.444-.316-2.835-1.159-3.562-2.476-1.114-1.915-1.058-4.31-.4-6.37 1.077-3.366 4.163-6.018 7.694-6.429 1.698-.21 3.521.011 4.976.967Zm-3.17 1.177c-.424-.551-1.24-.655-1.854-.395-1.531.883-2.026 2.762-2.512 4.346-.474 2.148-1.055 4.47-.336 6.625.307 1.066 1.762 1.408 2.566.682.92-.829 1.414-2.017 1.812-3.164.567-1.774.919-3.626.953-5.487 0-.895-.04-1.882-.628-2.607Z"/>
  </g>
</svg>
